<?xml version="1.0" encoding="utf-8"?>
<!-- Generator: Adobe Illustrator 17.0.0, SVG Export Plug-In . SVG Version: 6.00 Build 0)  -->
<!DOCTYPE svg PUBLIC "-//W3C//DTD SVG 1.1//EN" "http://www.w3.org/Graphics/SVG/1.1/DTD/svg11.dtd">
<svg version="1.1" id="Layer_1" xmlns="http://www.w3.org/2000/svg" xmlns:xlink="http://www.w3.org/1999/xlink" x="0px" y="0px"
	 width="40px" height="60px" viewBox="0 0 40 60" enable-background="new 0 0 40 60" xml:space="preserve">
<g opacity="0.4">
	<path fill="#FFFFFF" d="M35.192,31.534L7.328,55.572v-7.613c0-0.68,0.097-1.269,0.288-1.768c0.192-0.5,0.528-0.95,1.008-1.349
		l16.165-13.667c0.48-0.441,0.99-0.81,1.53-1.109c0.54-0.3,1.11-0.57,1.71-0.81c-0.6-0.2-1.17-0.459-1.71-0.779
		c-0.54-0.32-1.049-0.681-1.53-1.079L8.624,13.791c-0.479-0.4-0.815-0.86-1.008-1.379c-0.191-0.52-0.288-1.099-0.288-1.738V3
		l27.864,24.098V31.534z"/>
</g>
</svg>
